<svg width="100" height="100" viewBox="0 0 100 100" fill="none" xmlns="http://www.w3.org/2000/svg">
  <!-- Background -->
  <rect width="100" height="100" fill="#1B3A57"/>

  <!-- Building structure -->
  <g>
    <!-- Main building blocks -->
    <rect x="15" y="30" width="20" height="35" fill="#F2C94C"/>
    <rect x="40" y="20" width="20" height="45" fill="#2C5F8A"/>
    <rect x="65" y="35" width="20" height="30" fill="#F2C94C"/>

    <!-- Window details -->
    <rect x="19" y="36" width="4" height="4" fill="#1B3A57"/>
    <rect x="27" y="36" width="4" height="4" fill="#1B3A57"/>
    <rect x="19" y="46" width="4" height="4" fill="#1B3A57"/>
    <rect x="27" y="46" width="4" height="4" fill="#1B3A57"/>
    <rect x="19" y="56" width="4" height="4" fill="#1B3A57"/>
    <rect x="27" y="56" width="4" height="4" fill="#1B3A57"/>

    <rect x="44" y="26" width="4" height="4" fill="#F2C94C"/>
    <rect x="52" y="26" width="4" height="4" fill="#F2C94C"/>
    <rect x="44" y="36" width="4" height="4" fill="#F2C94C"/>
    <rect x="52" y="36" width="4" height="4" fill="#F2C94C"/>
    <rect x="44" y="46" width="4" height="4" fill="#F2C94C"/>
    <rect x="52" y="46" width="4" height="4" fill="#F2C94C"/>
    <rect x="44" y="56" width="4" height="4" fill="#F2C94C"/>
    <rect x="52" y="56" width="4" height="4" fill="#F2C94C"/>

    <rect x="69" y="41" width="4" height="4" fill="#1B3A57"/>
    <rect x="77" y="41" width="4" height="4" fill="#1B3A57"/>
    <rect x="69" y="51" width="4" height="4" fill="#1B3A57"/>
    <rect x="77" y="51" width="4" height="4" fill="#1B3A57"/>

    <!-- Top accent line -->
    <line x1="10" y1="72" x2="90" y2="72" stroke="#F2C94C" stroke-width="2"/>
  </g>
</svg>
